<svg width="512" height="512" viewBox="0 0 512 512" fill="none" xmlns="http://www.w3.org/2000/svg">
<path d="M256 329C274.394 329 292.374 323.546 307.668 313.327C322.962 303.108 334.882 288.583 341.921 271.59C348.96 254.596 350.801 235.897 347.213 217.857C343.625 199.816 334.767 183.245 321.761 170.239C308.755 157.233 292.184 148.375 274.143 144.787C256.103 141.199 237.404 143.04 220.41 150.079C203.417 157.118 188.892 169.038 178.673 184.332C168.454 199.626 163 217.606 163 236C163.028 260.657 172.835 284.296 190.269 301.731C207.704 319.165 231.343 328.973 256 329V329ZM256 157C271.625 157 286.899 161.633 299.89 170.314C312.882 178.995 323.007 191.333 328.986 205.768C334.966 220.203 336.53 236.088 333.482 251.412C330.434 266.737 322.91 280.813 311.861 291.861C300.813 302.91 286.737 310.434 271.412 313.482C256.088 316.53 240.203 314.966 225.768 308.987C211.333 303.007 198.995 292.882 190.314 279.89C181.633 266.899 177 251.625 177 236C177.023 215.055 185.354 194.975 200.164 180.164C214.975 165.354 235.055 157.023 256 157V157Z" fill="#0D3F67"/>
<path d="M132.768 74C139.395 74 144.768 68.6274 144.768 62C144.768 55.3726 139.395 50 132.768 50C126.141 50 120.768 55.3726 120.768 62C120.768 68.6274 126.141 74 132.768 74Z" fill="#0D3F67"/>
<path d="M379.232 74C385.859 74 391.232 68.6274 391.232 62C391.232 55.3726 385.859 50 379.232 50C372.605 50 367.232 55.3726 367.232 62C367.232 68.6274 372.605 74 379.232 74Z" fill="#0D3F67"/>
<path d="M132.768 422C139.395 422 144.768 416.627 144.768 410C144.768 403.373 139.395 398 132.768 398C126.141 398 120.768 403.373 120.768 410C120.768 416.627 126.141 422 132.768 422Z" fill="#0D3F67"/>
<path d="M379.232 422C385.859 422 391.232 416.627 391.232 410C391.232 403.373 385.859 398 379.232 398C372.605 398 367.232 403.373 367.232 410C367.232 416.627 372.605 422 379.232 422Z" fill="#0D3F67"/>
<path d="M415.232 19H96.7681C94.9119 19.0011 93.132 19.7389 91.8195 21.0514C90.507 22.3639 89.7691 24.1438 89.7681 26V446C89.7691 447.856 90.507 449.636 91.8195 450.949C93.132 452.261 94.9119 452.999 96.7681 453H109.268V486C109.269 487.856 110.007 489.636 111.319 490.949C112.632 492.261 114.412 492.999 116.268 493H156.268C158.125 493 159.905 492.262 161.218 490.95C162.531 489.637 163.268 487.857 163.268 486V453H348.732V486C348.732 487.857 349.47 489.637 350.782 490.95C352.095 492.262 353.876 493 355.732 493H395.732C397.588 492.999 399.368 492.261 400.681 490.949C401.993 489.636 402.731 487.856 402.732 486V453H415.232C417.088 452.999 418.868 452.261 420.181 450.949C421.493 449.636 422.231 447.856 422.232 446V26C422.231 24.1438 421.493 22.3639 420.181 21.0514C418.868 19.7389 417.088 19.0011 415.232 19V19ZM149.268 479H123.268V453H149.268V479ZM388.732 479H362.732V453H388.732V479ZM408.232 439H103.768V33H408.232V439Z" fill="#0D3F67"/>
<path d="M380.232 223V338.5C380.232 340.357 380.969 342.137 382.282 343.45C383.595 344.762 385.375 345.5 387.232 345.5C389.088 345.5 390.869 344.762 392.182 343.45C393.494 342.137 394.232 340.357 394.232 338.5V223C394.232 221.143 393.494 219.363 392.182 218.05C390.869 216.737 389.088 216 387.232 216C385.375 216 383.595 216.737 382.282 218.05C380.969 219.363 380.232 221.143 380.232 223Z" fill="#0D3F67"/>
</svg>
