<svg width="512" height="512" viewBox="0 0 512 512" fill="none" xmlns="http://www.w3.org/2000/svg">
<path d="M490.948 133.732L378.268 21.0521C377.375 20.1578 376.257 19.522 375.031 19.2123C373.806 18.9027 372.52 18.9306 371.309 19.2933C370.099 19.6559 369.009 20.3397 368.156 21.272C367.303 22.2042 366.718 23.3502 366.464 24.5881L364.4 34.7121C353.108 90.6241 342.436 143.432 267.692 216.8L250.4 234.108L229.268 212.976C227.931 211.71 226.159 211.005 224.318 211.005C222.477 211.005 220.705 211.71 219.368 212.976L215.528 216.82L205.744 207.032L209.104 203.668C210.417 202.355 211.154 200.574 211.154 198.717C211.153 196.86 210.415 195.079 209.102 193.766C207.789 192.453 206.008 191.716 204.151 191.716C202.294 191.717 200.513 192.455 199.2 193.768L182.58 210.4C181.93 211.05 181.415 211.821 181.063 212.67C180.711 213.519 180.53 214.429 180.53 215.348C180.53 216.267 180.711 217.177 181.063 218.026C181.415 218.875 181.93 219.646 182.58 220.296C183.23 220.946 184.001 221.461 184.85 221.813C185.699 222.165 186.609 222.346 187.528 222.346C188.447 222.346 189.357 222.165 190.206 221.813C191.055 221.461 191.826 220.946 192.476 220.296L195.84 216.932L205.624 226.72L201.784 230.564C200.472 231.877 199.735 233.656 199.735 235.512C199.735 237.368 200.472 239.148 201.784 240.46L222.916 261.6L215.552 268.964L194.42 247.832C193.771 247.182 192.999 246.666 192.15 246.314C191.301 245.962 190.391 245.78 189.472 245.78C188.553 245.78 187.643 245.962 186.794 246.314C185.945 246.666 185.173 247.182 184.524 247.832L180.684 251.672L170.896 241.888L174.26 238.524C175.573 237.211 176.31 235.431 176.31 233.574C176.31 231.718 175.573 229.937 174.26 228.624C172.947 227.311 171.167 226.574 169.31 226.574C167.453 226.574 165.673 227.311 164.36 228.624L147.736 245.24C147.068 245.886 146.534 246.659 146.168 247.513C145.801 248.367 145.608 249.285 145.6 250.215C145.592 251.144 145.77 252.066 146.122 252.926C146.474 253.786 146.994 254.568 147.651 255.225C148.309 255.882 149.09 256.402 149.951 256.753C150.811 257.105 151.733 257.282 152.662 257.274C153.592 257.266 154.51 257.072 155.364 256.705C156.218 256.338 156.99 255.805 157.636 255.136L161 251.772L170.8 261.56L166.96 265.4C166.31 266.05 165.794 266.821 165.441 267.67C165.089 268.519 164.908 269.429 164.908 270.348C164.908 271.267 165.089 272.177 165.441 273.026C165.794 273.875 166.31 274.647 166.96 275.296L188.092 296.428L180.724 303.792L159.6 282.664C158.95 282.014 158.179 281.497 157.329 281.145C156.48 280.793 155.569 280.612 154.65 280.612C153.731 280.612 152.82 280.793 151.971 281.145C151.121 281.497 150.35 282.014 149.7 282.664L145.864 286.504L136.076 276.716L139.436 273.352C140.105 272.707 140.638 271.934 141.005 271.08C141.372 270.226 141.565 269.308 141.574 268.378C141.582 267.449 141.405 266.527 141.053 265.667C140.701 264.806 140.182 264.025 139.525 263.367C138.868 262.71 138.086 262.19 137.226 261.838C136.366 261.486 135.444 261.308 134.515 261.316C133.585 261.324 132.667 261.517 131.812 261.884C130.958 262.251 130.186 262.784 129.54 263.452L121.2 271.76L112.888 280.072C112.236 280.723 111.719 281.496 111.366 282.347C111.012 283.197 110.83 284.109 110.829 285.03C110.829 285.952 111.009 286.864 111.361 287.715C111.713 288.567 112.229 289.34 112.88 289.992C113.531 290.644 114.304 291.161 115.154 291.514C116.005 291.868 116.917 292.05 117.838 292.051C118.759 292.051 119.672 291.871 120.523 291.519C121.374 291.167 122.148 290.651 122.8 290L126.164 286.636L135.94 296.4L132.1 300.24C130.788 301.553 130.051 303.332 130.051 305.188C130.051 307.044 130.788 308.823 132.1 310.136L153.232 331.268L36.684 447.816L30.948 442.08C30.2982 441.43 29.5268 440.915 28.6778 440.563C27.8288 440.212 26.9189 440.031 26 440.031C25.081 440.031 24.1711 440.212 23.3221 440.563C22.4732 440.915 21.7018 441.43 21.052 442.08C20.4022 442.73 19.8868 443.501 19.5351 444.35C19.1834 445.199 19.0024 446.109 19.0024 447.028C19.0024 447.947 19.1834 448.857 19.5351 449.706C19.8868 450.555 20.4022 451.326 21.052 451.976L31.676 462.6L31.732 462.668L49.332 480.268C49.356 480.296 49.388 480.312 49.412 480.34L60.024 490.948C61.3439 492.223 63.112 492.929 64.9474 492.914C66.7828 492.898 68.5386 492.162 69.8367 490.865C71.1348 489.567 71.8714 487.812 71.8877 485.976C71.904 484.141 71.1988 482.373 69.924 481.052L64.184 475.312L121.136 418.36C125.044 428.65 131.465 437.799 139.814 444.972C148.163 452.145 158.174 457.115 168.935 459.428C179.697 461.741 190.866 461.324 201.425 458.215C211.984 455.106 221.597 449.404 229.388 441.628L246.488 424.528L269.38 447.416C270.03 448.067 270.801 448.583 271.651 448.935C272.5 449.287 273.41 449.468 274.33 449.468C275.249 449.468 276.16 449.287 277.009 448.935C277.859 448.583 278.63 448.067 279.28 447.416L296.856 429.836C298.168 428.523 298.905 426.742 298.905 424.886C298.905 423.03 298.168 421.249 296.856 419.936L273.968 397.052L281.332 389.688L304.22 412.576C305.534 413.887 307.314 414.623 309.17 414.623C311.026 414.623 312.806 413.887 314.12 412.576L331.696 394.976C332.347 394.326 332.863 393.555 333.215 392.705C333.567 391.856 333.748 390.946 333.748 390.026C333.748 389.107 333.567 388.196 333.215 387.347C332.863 386.498 332.347 385.726 331.696 385.076L308.8 362.208L316.164 354.844L339.056 377.736C340.369 379.048 342.148 379.785 344.004 379.785C345.86 379.785 347.639 379.048 348.952 377.736L366.552 360.136C367.203 359.486 367.719 358.715 368.071 357.865C368.423 357.016 368.604 356.106 368.604 355.186C368.604 354.267 368.423 353.356 368.071 352.507C367.719 351.658 367.203 350.886 366.552 350.236L343.648 327.36L364.048 306.916C370.177 300.799 375.039 293.534 378.356 285.535C381.674 277.537 383.382 268.963 383.382 260.304C383.382 251.645 381.674 243.071 378.356 235.073C375.039 227.075 370.177 219.809 364.048 213.692C358.56 208.193 352.148 203.701 345.104 200.424C394.164 164.4 434.584 156.22 477.208 147.624L487.392 145.552C488.629 145.297 489.774 144.711 490.705 143.858C491.637 143.005 492.32 141.915 492.683 140.705C493.045 139.495 493.073 138.21 492.764 136.985C492.456 135.76 491.821 134.642 490.928 133.748L490.948 133.732ZM232.8 271.488L240.516 279.2L233.152 286.564L225.452 278.86L232.8 271.488ZM243.036 296.448L250.396 289.084L288.7 327.384L281.336 334.752L243.036 296.448ZM197.956 306.328L205.66 314.028L198.292 321.392L190.592 313.692L197.956 306.328ZM208.192 331.292L215.556 323.924L253.856 362.228L246.508 369.6L208.192 331.292ZM46.584 457.712L163.128 341.168L170.832 348.872L54.288 465.416L46.584 457.712ZM163.628 375.872L180.728 358.768L219.024 397.064L201.932 414.128C199.42 416.643 196.437 418.639 193.154 420.001C189.871 421.364 186.352 422.066 182.797 422.068C179.242 422.07 175.722 421.372 172.437 420.014C169.152 418.656 166.167 416.664 163.652 414.152C161.137 411.64 159.141 408.657 157.779 405.374C156.416 402.091 155.714 398.572 155.712 395.017C155.71 391.462 156.408 387.942 157.766 384.657C159.124 381.372 161.116 378.387 163.628 375.872V375.872ZM219.492 431.732C209.737 441.45 196.529 446.907 182.76 446.907C168.991 446.907 155.782 441.45 146.028 431.732C139.263 424.988 134.509 416.494 132.3 407.2L141.812 397.688C142.486 408.095 147.1 417.853 154.714 424.979C162.329 432.104 172.372 436.061 182.8 436.044C188.193 436.055 193.536 435.001 198.521 432.942C203.506 430.882 208.035 427.859 211.848 424.044L228.944 406.976L236.612 414.644L219.492 431.732ZM274.328 432.572L146.952 305.2L154.632 297.52L282 424.888L274.328 432.572ZM264.068 387.152L256.4 379.492L263.764 372.124L271.428 379.788L264.068 387.152ZM309.168 397.728L181.792 270.348L189.472 262.668L316.848 390.048L309.168 397.728ZM298.912 352.312L291.248 344.648L298.612 337.284L306.276 344.948L298.912 352.312ZM344 362.888L216.632 235.508L220.46 231.68L224.288 227.852L351.692 355.2L344 362.888ZM277.888 261.6L298.336 241.12C302.13 237.341 306.959 234.771 312.213 233.734C317.467 232.697 322.91 233.24 327.855 235.294C332.801 237.349 337.027 240.822 340 245.276C342.973 249.73 344.56 254.965 344.56 260.32C344.573 263.878 343.876 267.402 342.511 270.687C341.145 273.972 339.139 276.952 336.608 279.452L316.208 299.904L277.888 261.6ZM369.4 260.296C369.418 267.12 368.081 273.879 365.466 280.182C362.851 286.484 359.011 292.205 354.168 297.012L333.748 317.46L326.088 309.8L346.488 289.364C352.005 283.87 355.844 276.919 357.557 269.323C359.27 261.728 358.785 253.802 356.16 246.472C353.534 239.141 348.877 232.71 342.731 227.929C336.586 223.148 329.207 220.214 321.456 219.472C325.029 216.352 328.584 213.351 332.12 210.468C342.872 213.652 352.309 220.222 359.026 229.2C365.743 238.179 369.381 249.087 369.4 260.3V260.296ZM326.572 196.968L326.532 196.996C326.376 197.1 326.224 197.208 326.08 197.324C312.888 207.911 300.308 219.239 288.4 231.252L268 251.704L260.292 244L277.544 226.748C354.112 151.6 366.036 97.2561 377.6 40.1641L471.836 134.4C427.6 143.372 381.704 153.272 326.572 196.968V196.968Z" fill="#0D3F67"/>
</svg>
