<svg width="512" height="512" viewBox="0 0 512 512" fill="none" xmlns="http://www.w3.org/2000/svg">
<g filter="url(#filter0_d)">
<path d="M103.448 367.492C102.752 365.843 101.451 364.524 99.812 363.804L83.012 356.428V117H126C127.857 117 129.637 116.263 130.95 114.95C132.263 113.637 133 111.857 133 110C133 108.144 132.263 106.363 130.95 105.05C129.637 103.738 127.857 103 126 103H83V96.7681C83 94.9116 82.2625 93.1311 80.9497 91.8183C79.637 90.5056 77.8565 89.7681 76 89.7681C74.1435 89.7681 72.363 90.5056 71.0503 91.8183C69.7375 93.1311 69 94.9116 69 96.7681V103H26C24.1435 103 22.363 103.738 21.0503 105.05C19.7375 106.363 19 108.144 19 110C19 111.857 19.7375 113.637 21.0503 114.95C22.363 116.263 24.1435 117 26 117H69V356.428L52.2 363.804C50.5613 364.524 49.2603 365.843 48.564 367.492L29.564 412.508C29.1882 413.358 28.9853 414.274 28.9673 415.203C28.9492 416.132 29.1163 417.055 29.4588 417.919C29.8013 418.783 30.3124 419.57 30.9622 420.234C31.612 420.898 32.3875 421.427 33.2436 421.788C34.0996 422.149 35.0191 422.337 35.9483 422.339C36.8775 422.341 37.7979 422.159 38.6558 421.802C39.5136 421.445 40.2918 420.92 40.945 420.259C41.5981 419.598 42.1131 418.814 42.46 417.952L60.376 375.504L69.012 371.716V415.232C69.012 417.089 69.7495 418.869 71.0623 420.182C72.375 421.495 74.1555 422.232 76.012 422.232C77.8685 422.232 79.649 421.495 80.9617 420.182C82.2745 418.869 83.012 417.089 83.012 415.232V371.716L91.648 375.504L109.564 417.952C109.911 418.814 110.426 419.598 111.079 420.259C111.732 420.92 112.51 421.445 113.368 421.802C114.226 422.159 115.146 422.341 116.076 422.339C117.005 422.337 117.924 422.149 118.78 421.788C119.636 421.427 120.412 420.898 121.062 420.234C121.712 419.57 122.223 418.783 122.565 417.919C122.908 417.055 123.075 416.132 123.057 415.203C123.039 414.274 122.836 413.358 122.46 412.508L103.448 367.492Z" fill="#0D3F67"/>
<path d="M482.448 412.508L463.448 367.492C462.752 365.843 461.451 364.524 459.812 363.804L443.012 356.428V190C443.014 189.204 442.878 188.414 442.612 187.664L417.6 117H458.4C460.256 117 462.037 116.263 463.35 114.95C464.662 113.637 465.4 111.857 465.4 110C465.4 108.144 464.662 106.363 463.35 105.05C462.037 103.738 460.256 103 458.4 103H412.628L409.596 94.4321C409.289 93.5653 408.815 92.7675 408.2 92.0842C407.584 91.4008 406.841 90.8453 406.011 90.4494C405.181 90.0534 404.282 89.8248 403.363 89.7765C402.445 89.7282 401.527 89.8613 400.66 90.1681C399.793 90.4748 398.995 90.9493 398.312 91.5644C397.629 92.1795 397.073 92.9232 396.677 93.753C396.281 94.5827 396.053 95.4824 396.004 96.4005C395.956 97.3187 396.089 98.2373 396.396 99.1041L397.772 103H358.4C356.543 103 354.763 103.738 353.45 105.05C352.137 106.363 351.4 108.144 351.4 110C351.4 111.857 352.137 113.637 353.45 114.95C354.763 116.263 356.543 117 358.4 117H402.728L429 191.2V356.428L412.2 363.804C410.561 364.524 409.26 365.843 408.564 367.492L389.564 412.508C389.188 413.358 388.985 414.274 388.967 415.203C388.949 416.132 389.116 417.055 389.459 417.919C389.801 418.783 390.312 419.57 390.962 420.234C391.612 420.898 392.387 421.427 393.243 421.788C394.1 422.149 395.019 422.337 395.948 422.339C396.877 422.341 397.798 422.159 398.656 421.802C399.514 421.445 400.292 420.92 400.945 420.259C401.598 419.598 402.113 418.814 402.46 417.952L420.376 375.504L429.012 371.716V415.232C429.012 417.089 429.749 418.869 431.062 420.182C432.375 421.495 434.155 422.232 436.012 422.232C437.868 422.232 439.649 421.495 440.962 420.182C442.274 418.869 443.012 417.089 443.012 415.232V371.716L451.648 375.504L469.564 417.952C469.911 418.814 470.426 419.598 471.079 420.259C471.732 420.92 472.51 421.445 473.368 421.802C474.226 422.159 475.146 422.341 476.076 422.339C477.005 422.337 477.924 422.149 478.78 421.788C479.636 421.427 480.412 420.898 481.062 420.234C481.712 419.57 482.223 418.783 482.565 417.919C482.908 417.055 483.075 416.132 483.057 415.203C483.039 414.274 482.836 413.358 482.46 412.508H482.448Z" fill="#0D3F67"/>
<path d="M256 273.6C247.891 273.6 239.964 276.005 233.222 280.51C226.479 285.015 221.224 291.418 218.121 298.91C215.018 306.402 214.206 314.646 215.788 322.599C217.37 330.552 221.275 337.858 227.009 343.591C232.743 349.325 240.048 353.23 248.001 354.812C255.955 356.394 264.198 355.582 271.69 352.479C279.182 349.376 285.585 344.121 290.09 337.378C294.595 330.636 297 322.709 297 314.6C296.988 303.73 292.665 293.308 284.979 285.622C277.292 277.935 266.87 273.612 256 273.6V273.6ZM256 341.6C250.66 341.6 245.44 340.017 241 337.05C236.559 334.083 233.099 329.866 231.055 324.933C229.012 319.999 228.477 314.57 229.519 309.333C230.561 304.095 233.132 299.284 236.908 295.508C240.684 291.732 245.495 289.161 250.733 288.119C255.97 287.077 261.399 287.612 266.332 289.655C271.266 291.699 275.483 295.16 278.45 299.6C281.416 304.04 283 309.26 283 314.6C282.993 321.759 280.146 328.622 275.084 333.684C270.022 338.746 263.159 341.593 256 341.6V341.6Z" fill="#0D3F67"/>
<path d="M386.584 269.572C388.93 270.441 391.425 270.835 393.924 270.732C396.424 270.629 398.878 270.031 401.144 268.972C403.406 267.933 405.438 266.454 407.124 264.623C408.81 262.792 410.115 260.644 410.964 258.304L420.44 232.628C423.364 230.691 425.694 227.981 427.171 224.8C428.648 221.619 429.214 218.091 428.807 214.607C428.4 211.124 427.036 207.821 424.866 205.066C422.695 202.311 419.804 200.211 416.512 199L352.584 175.436C349.298 174.209 345.736 173.919 342.295 174.598C338.854 175.278 335.67 176.901 333.098 179.285C330.525 181.669 328.666 184.722 327.728 188.101C326.79 191.481 326.809 195.055 327.784 198.424L318.304 224.16C316.577 228.887 316.794 234.105 318.906 238.673C321.019 243.24 324.856 246.784 329.576 248.528L351.496 256.616L342.596 280.768C335.793 263.336 323.888 248.362 308.437 237.805C292.986 227.249 274.709 221.602 255.996 221.602C237.283 221.602 219.006 227.249 203.555 237.805C188.104 248.362 176.199 263.336 169.396 280.768L160.5 256.616L182.4 248.536C184.746 247.679 186.899 246.366 188.737 244.675C190.574 242.983 192.06 240.946 193.108 238.679C194.156 236.412 194.747 233.96 194.846 231.465C194.945 228.969 194.55 226.479 193.684 224.136L184.208 198.428C185.332 194.572 185.192 190.458 183.808 186.688C182.061 181.963 178.51 178.124 173.936 176.014C169.361 173.904 164.137 173.694 159.408 175.432L95.4881 199C92.1925 200.208 89.2968 202.306 87.1232 205.062C84.9496 207.818 83.5834 211.122 83.1766 214.609C82.7699 218.095 83.3386 221.625 84.8194 224.807C86.3002 227.99 88.6351 230.698 91.5641 232.632L101.024 258.284C101.88 260.631 103.192 262.785 104.883 264.624C106.574 266.462 108.612 267.948 110.879 268.997C113.146 270.045 115.599 270.635 118.095 270.733C120.591 270.831 123.081 270.435 125.424 269.568L147.368 261.468L163.476 305.2C163.16 308.332 163.001 311.477 163 314.624C163.002 328.619 166.166 342.432 172.258 355.032C178.349 367.631 187.209 378.691 198.176 387.384L186.936 412.388C186.538 413.23 186.312 414.142 186.27 415.072C186.229 416.002 186.374 416.931 186.696 417.804C187.018 418.678 187.511 419.478 188.146 420.158C188.781 420.839 189.546 421.386 190.395 421.767C191.244 422.149 192.161 422.357 193.091 422.38C194.022 422.403 194.948 422.24 195.815 421.901C196.681 421.562 197.472 421.053 198.14 420.404C198.808 419.756 199.339 418.981 199.704 418.124L209.936 395.364C223.959 403.398 239.839 407.624 256 407.624C272.161 407.624 288.041 403.398 302.064 395.364L312.292 418.124C312.669 418.963 313.207 419.719 313.876 420.35C314.545 420.98 315.331 421.473 316.19 421.8C317.05 422.126 317.965 422.281 318.884 422.254C319.803 422.226 320.707 422.019 321.546 421.642C322.385 421.265 323.141 420.727 323.772 420.058C324.402 419.39 324.895 418.603 325.222 417.744C325.548 416.884 325.703 415.969 325.675 415.05C325.648 414.131 325.441 413.227 325.064 412.388L313.824 387.384C324.791 378.691 333.652 367.631 339.743 355.032C345.834 342.432 348.999 328.619 349 314.624C348.999 311.478 348.84 308.334 348.524 305.204L364.632 261.484L386.584 269.572ZM97.5201 214.736C97.7919 214.139 98.1793 213.602 98.6599 213.156C99.1405 212.71 99.7047 212.363 100.32 212.136L164.248 188.572C164.864 188.345 165.519 188.242 166.175 188.268C166.831 188.294 167.476 188.449 168.072 188.724C168.668 189 169.204 189.39 169.65 189.872C170.095 190.354 170.441 190.92 170.668 191.536C171.119 192.778 171.061 194.148 170.505 195.347C169.95 196.546 168.943 197.477 167.704 197.936L103.792 221.52C102.862 221.865 101.851 221.926 100.887 221.695C99.9226 221.464 99.0488 220.952 98.3765 220.223C97.7042 219.494 97.2638 218.581 97.1113 217.602C96.9588 216.622 97.1011 215.619 97.5201 214.72V214.736ZM120.584 256.428C119.966 256.656 119.309 256.759 118.65 256.733C117.992 256.706 117.346 256.549 116.748 256.272C116.154 255.999 115.621 255.611 115.178 255.13C114.735 254.65 114.392 254.086 114.168 253.472L107.368 235.012C107.792 234.888 108.22 234.824 108.644 234.668L172.56 211.092C172.96 210.936 173.36 210.692 173.76 210.516L180.56 228.964C180.79 229.584 180.896 230.242 180.871 230.902C180.846 231.563 180.692 232.212 180.416 232.812C180.14 233.408 179.748 233.944 179.263 234.387C178.778 234.831 178.21 235.174 177.592 235.396L120.584 256.428ZM256 393.6C240.375 393.6 225.101 388.967 212.11 380.286C199.119 371.606 188.993 359.267 183.014 344.832C177.034 330.397 175.47 314.512 178.518 299.188C181.566 283.863 189.09 269.787 200.139 258.739C211.187 247.69 225.263 240.166 240.588 237.118C255.912 234.07 271.797 235.634 286.232 241.614C300.667 247.593 313.006 257.719 321.686 270.71C330.367 283.702 335 298.975 335 314.6C334.976 335.545 326.645 355.625 311.835 370.435C297.024 385.245 276.945 393.576 256 393.6V393.6ZM341.324 191.532C341.782 190.293 342.713 189.285 343.913 188.73C345.112 188.176 346.483 188.119 347.724 188.572L411.652 212.136C412.268 212.363 412.834 212.71 413.316 213.155C413.798 213.601 414.188 214.137 414.463 214.734C414.738 215.33 414.893 215.975 414.919 216.631C414.945 217.287 414.841 217.942 414.614 218.558C414.387 219.174 414.041 219.74 413.595 220.222C413.149 220.704 412.613 221.094 412.017 221.369C411.42 221.644 410.775 221.799 410.119 221.825C409.463 221.851 408.808 221.747 408.192 221.52V221.52L344.28 197.956C343.037 197.495 342.029 196.559 341.474 195.355C340.92 194.151 340.866 192.776 341.324 191.532V191.532ZM331.444 228.98L338.244 210.512C338.644 210.696 339.008 210.936 339.444 211.092L403.376 234.656C403.776 234.812 404.224 234.876 404.648 235L397.848 253.48C397.39 254.72 396.459 255.727 395.259 256.28C394.059 256.833 392.688 256.888 391.448 256.432L334.4 235.388C333.161 234.926 332.155 233.994 331.602 232.793C331.048 231.593 330.991 230.222 331.444 228.98V228.98Z" fill="#0D3F67"/>
</g>
<defs>
<filter id="filter0_d" x="-4" y="0" width="520" height="520" filterUnits="userSpaceOnUse" color-interpolation-filters="sRGB">
<feFlood flood-opacity="0" result="BackgroundImageFix"/>
<feColorMatrix in="SourceAlpha" type="matrix" values="0 0 0 0 0 0 0 0 0 0 0 0 0 0 0 0 0 0 127 0"/>
<feOffset dy="4"/>
<feGaussianBlur stdDeviation="2"/>
<feColorMatrix type="matrix" values="0 0 0 0 0 0 0 0 0 0 0 0 0 0 0 0 0 0 0.25 0"/>
<feBlend mode="normal" in2="BackgroundImageFix" result="effect1_dropShadow"/>
<feBlend mode="normal" in="SourceGraphic" in2="effect1_dropShadow" result="shape"/>
</filter>
</defs>
</svg>
