<svg width="512" height="512" viewBox="0 0 512 512" fill="none" xmlns="http://www.w3.org/2000/svg">
<path d="M183.088 438.696C173.991 446.513 162.43 450.874 150.436 451.012C137.271 450.503 124.489 446.442 113.444 439.26C111.856 438.368 109.982 438.13 108.221 438.597C106.46 439.064 104.951 440.199 104.013 441.761C103.076 443.324 102.785 445.19 103.201 446.963C103.618 448.737 104.709 450.278 106.244 451.26C119.452 459.754 134.72 464.5 150.416 464.992C165.596 464.899 180.256 459.451 191.812 449.608C192.544 449.038 193.155 448.329 193.61 447.522C194.065 446.714 194.355 445.824 194.464 444.904C194.572 443.983 194.497 443.05 194.242 442.159C193.987 441.268 193.557 440.436 192.978 439.712C192.399 438.988 191.682 438.386 190.869 437.942C190.056 437.497 189.162 437.219 188.24 437.122C187.318 437.026 186.386 437.114 185.498 437.38C184.61 437.647 183.784 438.087 183.068 438.676L183.088 438.696Z" fill="#0D3F67"/>
<path d="M154.8 386.56C155.498 387.159 156.307 387.614 157.181 387.9C158.054 388.186 158.976 388.297 159.893 388.227C160.809 388.156 161.703 387.906 162.523 387.491C163.343 387.075 164.074 386.502 164.672 385.804C165.271 385.106 165.726 384.297 166.012 383.423C166.298 382.55 166.409 381.628 166.339 380.711C166.268 379.795 166.018 378.901 165.603 378.081C165.187 377.261 164.614 376.531 163.916 375.932L130.88 347.568C129.471 346.359 127.64 345.758 125.788 345.899C123.937 346.04 122.218 346.911 121.008 348.32C119.799 349.729 119.199 351.56 119.34 353.412C119.481 355.263 120.351 356.983 121.76 358.192L154.8 386.56Z" fill="#0D3F67"/>
<path d="M179.628 357.644C181.037 358.853 182.869 359.452 184.72 359.31C186.572 359.169 188.291 358.297 189.5 356.888C190.709 355.479 191.308 353.647 191.166 351.795C191.025 349.944 190.153 348.225 188.744 347.016L155.696 318.652C154.284 317.47 152.462 316.892 150.627 317.043C148.791 317.195 147.09 318.063 145.89 319.461C144.691 320.859 144.091 322.673 144.22 324.51C144.349 326.347 145.197 328.06 146.58 329.276L179.628 357.644Z" fill="#0D3F67"/>
<path d="M491.548 21.7199C490.784 20.7307 489.77 19.9634 488.611 19.4972C487.451 19.031 486.188 18.8828 484.952 19.0679L375.56 35.6479C374.283 35.8411 373.084 36.3833 372.096 37.2148C371.108 38.0463 370.369 39.1348 369.96 40.3599L357.16 78.8039L237.012 216.064C224.676 213.352 216.308 208.324 211.584 200.66C207.95 193.849 205.865 186.318 205.48 178.608L205.392 177.848C205.3 177.084 205.212 176.156 205.112 175.096C204.24 165.736 202.772 150.072 192.772 143.332C190.387 141.782 187.676 140.802 184.85 140.469C182.025 140.136 179.161 140.459 176.48 141.412C159.792 146.392 152.624 172.968 144.324 203.744C138.668 224.708 132.828 246.38 124.084 260.5C118.803 266.138 111.739 269.784 104.084 270.824C79.562 273.814 57.0318 285.828 40.8841 304.524C3.60012 348 14.5841 412.212 67.0001 457.232C94.6001 480.924 123.216 492.796 150.308 492.796C176.2 492.796 200.708 481.948 221.644 460.212C242.084 438.972 245.976 411.568 245.644 392.248C245.589 390.035 245.77 387.822 246.184 385.648C246.236 385.464 246.28 385.272 246.32 385.084C247.154 380.815 248.828 376.753 251.244 373.136C251.319 373.024 251.391 372.908 251.46 372.788C257.984 361.532 269.86 351.624 292.448 338.588C294.848 337.216 297.32 335.788 299.944 334.368C326.952 319.468 331.228 306.12 330.052 297.544C328.804 288.4 320.804 281.224 308.676 278.344C305.376 277.544 301.544 276.592 298.124 275.484C287.648 272.148 281.744 268.04 277.908 254.644L395.508 114.94C395.766 114.845 396.017 114.732 396.26 114.604C396.836 114.24 454.172 77.9159 476.04 63.8839C477.232 63.1203 478.164 62.0128 478.712 60.7079C482.712 51.2279 492.432 28.7679 492.436 28.7639C492.93 27.6173 493.108 26.3595 492.951 25.121C492.795 23.8824 492.311 22.7082 491.548 21.7199V21.7199ZM264.748 248.52C264.748 248.544 264.72 248.572 264.7 248.596L226.7 293.728L204.4 274.572L244.4 228.868L244.448 228.832L362.604 93.8439L382 109.268L264.748 248.52ZM293.832 288.8C297.672 290.048 301.832 291.092 305.432 291.956C311.544 293.4 315.764 296.332 316.188 299.424C316.772 303.708 311.1 312.224 293.22 322.076C290.532 323.544 287.968 325.008 285.472 326.44C260.672 340.748 247.324 352.1 239.472 365.576C236.187 370.539 233.879 376.084 232.672 381.912C232.621 382.088 232.577 382.268 232.54 382.452C231.865 385.773 231.566 389.16 231.648 392.548C231.936 409.156 228.684 432.692 211.56 450.488C173.92 489.576 124.556 488.156 76.1241 446.592C29.8521 406.872 19.5041 350.952 51.5081 313.64C65.4451 297.557 84.8709 287.238 106 284.696C117.128 283.181 127.362 277.78 134.892 269.448C135.16 269.154 135.401 268.837 135.612 268.5C145.664 252.604 151.864 229.616 157.856 207.388C163.848 185.16 171.292 157.576 180.508 154.824C183.468 153.932 184.556 154.668 184.964 154.94C189.468 157.976 190.72 171.36 191.188 176.4C191.304 177.6 191.404 178.652 191.508 179.516L191.596 180.272C192.191 190.014 194.958 199.499 199.696 208.032C205.978 217.727 215.619 224.76 226.768 227.784L189.2 270.668C188.591 271.364 188.126 272.173 187.831 273.05C187.537 273.926 187.419 274.852 187.484 275.775C187.55 276.697 187.797 277.597 188.213 278.423C188.628 279.25 189.203 279.985 189.904 280.588L222.944 308.952C224.214 310.04 225.831 310.639 227.504 310.64C227.691 310.64 227.879 310.632 228.068 310.616C228.992 310.543 229.892 310.287 230.716 309.863C231.54 309.44 232.271 308.857 232.868 308.148L267.54 266.948C273.436 279.772 282.48 285.2 293.832 288.8V288.8ZM466.632 53.2599C447.364 65.6039 406.212 91.6959 392.948 100.104L370.724 82.3999L381.896 48.8359L474.568 34.7999C471.92 40.9399 468.8 48.2279 466.648 53.2759L466.632 53.2599Z" fill="#0D3F67"/>
</svg>
