<svg width="512" height="512" viewBox="0 0 512 512" fill="none" xmlns="http://www.w3.org/2000/svg">
<path d="M196.824 428.8C195.335 427.692 193.467 427.22 191.63 427.489C189.793 427.757 188.138 428.744 187.028 430.232C185.476 432.316 183.774 434.284 181.936 436.12C176.505 441.384 170.085 445.521 163.046 448.291C156.008 451.061 148.491 452.41 140.928 452.26C139.072 452.26 137.291 452.998 135.978 454.31C134.666 455.623 133.928 457.404 133.928 459.26C133.928 461.117 134.666 462.897 135.978 464.21C137.291 465.523 139.072 466.26 140.928 466.26C150.33 466.415 159.669 464.706 168.407 461.232C177.144 457.758 185.108 452.588 191.836 446.02C194.146 443.703 196.285 441.222 198.236 438.596C199.348 437.11 199.823 435.243 199.558 433.406C199.294 431.569 198.31 429.912 196.824 428.8Z" fill="#0D3F67"/>
<path d="M148.232 432.992C149.616 432.991 150.968 432.58 152.119 431.811C153.269 431.042 154.166 429.949 154.696 428.67C155.225 427.392 155.364 425.985 155.094 424.627C154.824 423.27 154.158 422.023 153.18 421.044L90.9558 358.82C89.6358 357.545 87.8678 356.839 86.0324 356.854C84.197 356.87 82.4412 357.606 81.1431 358.903C79.8449 360.201 79.1084 361.956 79.0921 363.792C79.0758 365.627 79.781 367.396 81.0558 368.716L143.28 430.94C143.929 431.591 144.701 432.108 145.551 432.46C146.401 432.812 147.312 432.993 148.232 432.992V432.992Z" fill="#0D3F67"/>
<path d="M485.2 42.512L469.48 26.8C466.35 23.6692 462.586 21.2449 458.441 19.6903C454.296 18.1357 449.866 17.4868 445.449 17.7873C441.032 18.0879 436.731 19.3308 432.835 21.4325C428.938 23.5343 425.537 26.4461 422.86 29.972L419.376 34.704L414.612 29.94C413.966 29.2716 413.194 28.7385 412.34 28.3718C411.486 28.0051 410.567 27.8122 409.638 27.8043C408.708 27.7964 407.786 27.9737 406.926 28.3259C406.066 28.678 405.285 29.1979 404.627 29.8553C403.97 30.5127 403.451 31.2944 403.099 32.1547C402.747 33.015 402.57 33.9368 402.578 34.8663C402.587 35.7957 402.78 36.7142 403.147 37.5682C403.514 38.4222 404.048 39.1945 404.716 39.84L410.98 46.104L404.78 54.528L399.98 49.728C399.33 49.078 398.558 48.5624 397.709 48.2106C396.86 47.8588 395.95 47.6777 395.03 47.6777C394.111 47.6777 393.201 47.8588 392.351 48.2106C391.502 48.5624 390.73 49.078 390.08 49.728C389.43 50.3781 388.915 51.1498 388.563 51.9991C388.211 52.8484 388.03 53.7587 388.03 54.678C388.03 55.5973 388.211 56.5076 388.563 57.357C388.915 58.2063 389.43 58.978 390.08 59.628L396.4 65.948L389.7 75.048C389.317 75.567 389.008 76.1364 388.78 76.74L382.716 92.928L251.92 221.428C217.564 200.704 178.24 202.228 154.72 225.792C147.942 232.56 142.82 240.804 139.756 249.88C137.647 256.073 133.741 261.497 128.536 265.46C123.331 269.423 117.063 271.746 110.532 272.132C86.3415 273.324 63.4352 283.376 46.1802 300.372C5.24023 341.312 9.04424 411.732 54.6642 457.348C77.419 480.558 108.439 493.812 140.94 494.212C166.285 494.782 190.844 485.392 209.342 468.057C227.841 450.722 238.805 426.825 239.88 401.496C240.264 394.963 242.585 388.692 246.548 383.484C250.512 378.276 255.937 374.367 262.132 372.256C271.192 369.184 279.424 364.073 286.196 357.316C309.796 333.764 311.308 294.448 290.596 260.088L419.168 129.264L435.272 123.228C435.876 123.001 436.447 122.692 436.968 122.312L446.068 115.612L452.356 121.904C452.997 122.595 453.77 123.149 454.63 123.534C455.49 123.919 456.419 124.126 457.361 124.143C458.303 124.16 459.239 123.987 460.113 123.634C460.986 123.281 461.779 122.755 462.445 122.088C463.11 121.421 463.634 120.627 463.985 119.752C464.336 118.878 464.507 117.942 464.487 117C464.468 116.058 464.259 115.129 463.872 114.27C463.485 113.411 462.929 112.639 462.236 112L457.436 107.2L465.86 100.996L472.128 107.268C472.778 107.918 473.55 108.434 474.399 108.786C475.249 109.137 476.159 109.318 477.078 109.318C477.998 109.318 478.908 109.137 479.757 108.786C480.606 108.434 481.378 107.918 482.028 107.268C482.678 106.618 483.194 105.846 483.546 104.997C483.898 104.148 484.079 103.237 484.079 102.318C484.079 101.399 483.898 100.488 483.546 99.6391C483.194 98.7898 482.678 98.0181 482.028 97.368L477.26 92.6L481.992 89.116L482.088 89.04C485.599 86.3582 488.495 82.9565 490.583 79.0633C492.671 75.1701 493.902 70.8753 494.194 66.4672C494.486 62.0591 493.831 57.6396 492.274 53.5052C490.718 49.3708 488.295 45.6171 485.168 42.496L485.2 42.512ZM276.284 347.412C271.012 352.66 264.607 356.628 257.56 359.012C248.738 362.019 241.013 367.589 235.372 375.009C229.731 382.429 226.43 391.363 225.892 400.668C225.003 421.452 216.388 441.156 201.732 455.92C166.248 491.404 104.712 487.592 64.5322 447.44C24.3522 407.288 20.5722 345.74 56.0522 310.24C70.8198 295.582 90.5281 286.966 111.316 286.08C120.619 285.54 129.55 282.239 136.967 276.599C144.385 270.959 149.953 263.236 152.96 254.416C155.337 247.357 159.314 240.943 164.58 235.676C182.82 217.4 213.564 216.076 241.552 231.572L189.364 282.892C188.964 282.892 188.564 282.836 188.164 282.836C177.295 282.836 166.87 287.154 159.184 294.84C151.498 302.526 147.18 312.95 147.18 323.82C147.18 334.69 151.498 345.114 159.184 352.8C166.87 360.486 177.295 364.804 188.164 364.804C193.549 364.81 198.882 363.755 203.858 361.698C208.834 359.64 213.356 356.622 217.164 352.815C220.972 349.008 223.992 344.488 226.052 339.513C228.111 334.537 229.168 329.205 229.164 323.82C229.164 323.42 229.116 323.02 229.104 322.62L280.4 270.44C295.884 298.428 294.568 329.164 276.284 347.412V347.412ZM190.8 296.96C197.817 297.646 204.288 301.048 208.831 306.439C213.374 311.831 215.628 318.785 215.114 325.817C214.599 332.849 211.355 339.4 206.075 344.073C200.795 348.745 193.898 351.168 186.856 350.824C179.814 350.48 173.185 347.396 168.386 342.231C163.587 337.066 160.997 330.23 161.17 323.182C161.343 316.133 164.265 309.432 169.311 304.509C174.358 299.585 181.13 296.83 188.18 296.832C189.036 296.832 189.891 296.873 190.744 296.956L190.8 296.96ZM225.316 306.524C221.284 297.757 214.25 290.722 205.484 286.688L389.544 105.832L406.188 122.476L225.316 306.524ZM473.648 77.9L429.432 110.46L418.188 114.672L397.32 93.808L401.536 82.564L426 49.328L426.048 49.268L434.048 38.408C435.528 36.4807 437.402 34.8915 439.545 33.7464C441.689 32.6013 444.052 31.9269 446.476 31.768C448.891 31.5921 451.316 31.9431 453.582 32.7968C455.848 33.6504 457.901 34.9864 459.6 36.712L475.28 52.4C476.993 54.1069 478.321 56.1599 479.177 58.4217C480.032 60.6835 480.394 63.1018 480.239 65.5149C480.084 67.9279 479.416 70.2801 478.278 72.4139C477.141 74.5478 475.561 76.4141 473.644 77.888L473.648 77.9Z" fill="#0D3F67"/>
</svg>
