<svg width="512" height="512" viewBox="0 0 512 512" fill="none" xmlns="http://www.w3.org/2000/svg">
<path d="M467.52 44.484C455.592 32.5088 440.429 24.2742 423.89 20.7897C407.351 17.3053 390.155 18.7224 374.409 24.8673C358.664 31.0122 345.054 41.6179 335.247 55.3841C325.44 69.1503 319.863 85.4789 319.2 102.368L149.884 310.552C145.824 315.545 143.152 321.521 142.137 327.877C141.123 334.232 141.803 340.743 144.108 346.752L102.088 388.752C100.895 389.938 100.173 391.517 100.057 393.195C99.9404 394.873 100.438 396.537 101.456 397.876C100.952 397.992 100.432 398.1 99.8562 398.216C94.1492 399.048 88.8787 401.747 84.8682 405.892C78.0682 412.692 79.1522 420.744 79.8562 426.088C80.5402 431.26 80.4882 432.888 78.8282 434.56C77.1682 436.232 75.5242 436.276 70.3482 435.596C65.0202 434.9 56.9322 433.828 50.1482 440.612C43.3642 447.396 44.4202 455.476 45.1202 460.82C45.8002 466.02 45.7482 467.64 44.0802 469.308C41.9672 471.535 39.1322 472.94 36.0802 473.272C30.3655 474.162 25.0945 476.884 21.0602 481.028C19.7468 482.34 19.0086 484.121 19.0078 485.977C19.0071 487.834 19.7439 489.615 21.0562 490.928C22.3685 492.241 24.1487 492.98 26.0053 492.98C27.862 492.981 29.6428 492.244 30.9562 490.932C33.0747 488.701 35.9173 487.296 38.9762 486.968C44.691 486.076 49.9619 483.353 53.9962 479.208C60.7962 472.408 59.7202 464.344 59.0202 459C58.3402 453.8 58.3962 452.2 60.0642 450.512C61.7322 448.824 63.3562 448.796 68.5402 449.476C73.8842 450.176 81.9602 451.236 88.7442 444.456C95.5282 437.676 94.4562 429.604 93.7562 424.26C93.0722 419.088 93.1202 417.46 94.7802 415.792C96.8453 413.598 99.6372 412.229 102.636 411.94C105.95 411.399 109.141 410.272 112.06 408.612L113.38 409.928C114.03 410.579 114.802 411.095 115.651 411.447C116.5 411.799 117.411 411.98 118.33 411.98C119.25 411.98 120.16 411.799 121.009 411.447C121.859 411.095 122.63 410.579 123.28 409.928L165.28 367.896C171.287 370.215 177.801 370.899 184.159 369.879C190.516 368.859 196.489 366.17 201.468 362.088L409.628 192.8C426.516 192.136 442.844 186.559 456.609 176.753C470.375 166.946 480.98 153.337 487.125 137.593C493.271 121.849 494.689 104.653 491.207 88.115C487.725 71.5765 479.493 56.4133 467.52 44.484V44.484ZM457.62 54.4C470.417 67.2434 477.985 84.3844 478.854 102.494C479.722 120.604 473.83 138.391 462.32 152.4L359.6 49.684C373.608 38.1533 391.404 32.2471 409.526 33.1152C427.648 33.9832 444.799 41.5633 457.64 54.38L457.62 54.4ZM349.68 59.6L452.42 162.336C438.42 173.886 420.619 179.805 402.49 178.939C384.362 178.072 367.206 170.481 354.372 157.647C341.539 144.814 333.947 127.659 333.08 109.53C332.212 91.4018 338.131 73.6002 349.68 59.6V59.6ZM118.316 395.1L117.688 394.472C117.66 394.444 117.644 394.412 117.616 394.384C117.588 394.356 117.56 394.34 117.532 394.316L116.936 393.72L151.772 358.888C151.992 359.116 152.172 359.364 152.412 359.588C152.652 359.812 152.9 360.02 153.136 360.248L118.316 395.1ZM192.62 351.252C188.269 354.783 182.763 356.576 177.167 356.285C171.571 355.995 166.281 353.641 162.318 349.678C158.356 345.715 156.003 340.425 155.713 334.829C155.423 329.232 157.217 323.727 160.748 319.376L320.668 122.768C323.977 139.721 332.269 155.301 344.482 167.515C356.695 179.73 372.275 188.022 389.228 191.332L192.62 351.252Z" fill="#0D3F67"/>
<path d="M321.34 180.76L307.2 194.904C305.945 196.228 305.256 197.989 305.28 199.814C305.304 201.638 306.04 203.38 307.33 204.67C308.62 205.96 310.362 206.696 312.186 206.72C314.01 206.744 315.772 206.055 317.096 204.8L331.24 190.656C332.553 189.343 333.29 187.563 333.29 185.706C333.29 183.849 332.553 182.069 331.24 180.756C329.927 179.443 328.146 178.706 326.29 178.706C324.433 178.706 322.653 179.443 321.34 180.756V180.76Z" fill="#0D3F67"/>
</svg>
