<svg width="512" height="512" viewBox="0 0 512 512" fill="none" xmlns="http://www.w3.org/2000/svg">
<path d="M486 89.7681H26C24.1435 89.7681 22.363 90.5056 21.0503 91.8183C19.7375 93.1311 19 94.9116 19 96.7681V371C19 372.857 19.7375 374.637 21.0503 375.95C22.363 377.263 24.1435 378 26 378H486C487.857 378 489.637 377.263 490.95 375.95C492.262 374.637 493 372.857 493 371V96.7681C493 94.9116 492.262 93.1311 490.95 91.8183C489.637 90.5056 487.857 89.7681 486 89.7681V89.7681ZM33 103.768H479V200H33V103.768ZM359 214V307.768H364V364H320.5V214H359ZM244 214V307.768H249V364H205.5V214H244ZM95.5 307.768V214H129V307.768H134V364H90.5V307.768H95.5ZM33 364V214H71.5V307.768H76.5V364H33ZM148 364V307.768H153V214H191.5V364H148ZM263 364V307.768H268V214H306.5V364H263ZM378 364V307.768H383V214H416.5V307.768H421.5V364H378ZM435.5 364V307.768H440.5V214H479V364H435.5Z" fill="#0D3F67"/>
<path d="M196 178.884H316C316.919 178.885 317.83 178.704 318.679 178.352C319.529 178.001 320.301 177.485 320.951 176.835C321.601 176.185 322.117 175.413 322.468 174.563C322.82 173.714 323.001 172.803 323 171.884V131.884C323 130.028 322.262 128.247 320.95 126.934C319.637 125.622 317.857 124.884 316 124.884H196C194.143 124.884 192.363 125.622 191.05 126.934C189.737 128.247 189 130.028 189 131.884V171.884C188.999 172.803 189.18 173.714 189.532 174.563C189.883 175.413 190.399 176.185 191.049 176.835C191.699 177.485 192.471 178.001 193.321 178.352C194.17 178.704 195.081 178.885 196 178.884V178.884ZM203 138.884H309V164.884H203V138.884Z" fill="#0D3F67"/>
<path d="M371 163.884C377.627 163.884 383 158.511 383 151.884C383 145.257 377.627 139.884 371 139.884C364.373 139.884 359 145.257 359 151.884C359 158.511 364.373 163.884 371 163.884Z" fill="#0D3F67"/>
<path d="M421.5 163.884C428.127 163.884 433.5 158.511 433.5 151.884C433.5 145.257 428.127 139.884 421.5 139.884C414.873 139.884 409.5 145.257 409.5 151.884C409.5 158.511 414.873 163.884 421.5 163.884Z" fill="#0D3F67"/>
<path d="M141 163.884C147.627 163.884 153 158.511 153 151.884C153 145.257 147.627 139.884 141 139.884C134.373 139.884 129 145.257 129 151.884C129 158.511 134.373 163.884 141 163.884Z" fill="#0D3F67"/>
<path d="M90.5 163.884C97.1274 163.884 102.5 158.511 102.5 151.884C102.5 145.257 97.1274 139.884 90.5 139.884C83.8726 139.884 78.5 145.257 78.5 151.884C78.5 158.511 83.8726 163.884 90.5 163.884Z" fill="#0D3F67"/>
</svg>
