<?xml version="1.0"?>
<svg xmlns="http://www.w3.org/2000/svg" xmlns:xlink="http://www.w3.org/1999/xlink" version="1.1" id="Capa_1" x="0px" y="0px" viewBox="0 0 512 512" style="enable-background:new 0 0 512 512;" xml:space="preserve" width="512px" height="512px"><g><g>
	<g>
		<path d="M497,0H15C6.716,0,0,6.716,0,15v482c0,8.284,6.716,15,15,15h482c8.284,0,15-6.716,15-15V15C512,6.716,505.284,0,497,0z     M252.567,123.438l43.044-43.044c5.857-5.857,15.355-5.857,21.213,0c5.858,5.857,5.858,15.355,0,21.213L273.78,144.65    c-5.858,5.858-15.355,5.858-21.213,0C246.709,138.793,246.709,129.295,252.567,123.438z M80.394,295.611l43.043-43.044    c5.857-5.857,15.355-5.857,21.213,0c5.858,5.857,5.858,15.355,0,21.213l-43.043,43.044c-5.858,5.858-15.355,5.858-21.213,0    C74.536,310.967,74.536,301.469,80.394,295.611z M158.998,374.215l-43.043,43.044c-5.858,5.858-15.355,5.858-21.213,0    c-5.858-5.857-5.858-15.355,0-21.213l43.043-43.044c5.857-5.857,15.355-5.857,21.213,0    C164.855,358.859,164.855,368.357,158.998,374.215z M166.48,209.524l43.043-43.044c5.857-5.857,15.355-5.857,21.213,0    c5.858,5.857,5.858,15.355,0,21.213l-43.043,43.044c-5.858,5.858-15.355,5.858-21.213,0    C160.623,224.88,160.623,215.382,166.48,209.524z M180.828,309.959l43.043-43.044c5.857-5.857,15.355-5.857,21.213,0    c5.858,5.857,5.858,15.355,0,21.213l-43.043,43.044c-5.858,5.858-15.355,5.858-21.213,0    C174.97,325.314,174.97,315.816,180.828,309.959z M259.433,388.563l-43.043,43.044c-5.858,5.858-15.355,5.858-21.213,0    c-5.858-5.857-5.858-15.355,0-21.213l43.043-43.044c5.857-5.857,15.355-5.857,21.213,0    C265.291,373.207,265.291,382.705,259.433,388.563z M266.915,223.872l43.044-43.044c5.857-5.857,15.355-5.857,21.213,0    c5.858,5.857,5.858,15.355,0,21.213l-43.044,43.044c-5.858,5.858-15.355,5.858-21.213,0    C261.057,239.228,261.057,229.729,266.915,223.872z M345.52,302.476l-43.044,43.044c-5.858,5.858-15.355,5.858-21.213,0    c-5.858-5.857-5.858-15.355,0-21.213l43.044-43.044c5.857-5.857,15.355-5.857,21.213,0    C351.378,287.12,351.378,296.618,345.52,302.476z M353.002,137.785l43.044-43.044c5.857-5.857,15.355-5.857,21.213,0    c5.858,5.857,5.858,15.355,0,21.213l-43.044,43.044c-5.858,5.858-15.355,5.858-21.213,0    C347.144,153.141,347.144,143.643,353.002,137.785z M431.606,216.389l-43.044,43.044c-5.858,5.858-15.355,5.858-21.213,0    c-5.858-5.857-5.858-15.355,0-21.213l43.044-43.044c5.857-5.857,15.355-5.857,21.213,0    C437.465,201.033,437.465,210.531,431.606,216.389z" data-original="#000000" class="active-path" data-old_color="#000000" fill="#333333"/>
	</g>
</g></g> </svg>
